{
    "asset" : {
        "generator" : "Khronos glTF Blender I/O v1.8.19",
        "version" : "2.0"
    },
    "scene" : 0,
    "scenes" : [
        {
            "name" : "Scene",
            "nodes" : [
                0,
                1,
                2,
                3,
                4
            ]
        }
    ],
    "nodes" : [
        {
            "mesh" : 0,
            "name" : "GroundMesh"
        },
        {
            "mesh" : 1,
            "name" : "Strucuture",
            "translation" : [
                0.5547537803649902,
                7.754800796508789,
                0.2119201421737671
            ]
        },
        {
            "mesh" : 2,
            "name" : "Sphere",
            "translation" : [
                0.5919172763824463,
                1.6737027168273926,
                0.8489762544631958
            ]
        },
        {
            "mesh" : 3,
            "name" : "MetallicSphere2",
            "translation" : [
                4.082675933837891,
                1.6737027168273926,
                0.8489762544631958
            ]
        },
        {
            "mesh" : 4,
            "name" : "MetallicSphere",
            "translation" : [
                -2.811418294906616,
                1.6737027168273926,
                0.8489762544631958
            ]
        }
    ],
    "materials" : [
        {
            "doubleSided" : true,
            "name" : "Material",
            "pbrMetallicRoughness" : {
                "baseColorFactor" : [
                    0.800000011920929,
                    0.800000011920929,
                    0.800000011920929,
                    1
                ],
                "metallicFactor" : 0,
                "roughnessFactor" : 0.4000000059604645
            }
        }
    ],
    "meshes" : [
        {
            "name" : "Plane",
            "primitives" : [
                {
                    "attributes" : {
                        "POSITION" : 0,
                        "NORMAL" : 1,
                        "TEXCOORD_0" : 2
                    },
                    "indices" : 3
                }
            ]
        },
        {
            "name" : "Cube.004",
            "primitives" : [
                {
                    "attributes" : {
                        "POSITION" : 4,
                        "NORMAL" : 5,
                        "TEXCOORD_0" : 6
                    },
                    "indices" : 7,
                    "material" : 0
                }
            ]
        },
        {
            "name" : "Cube.006",
            "primitives" : [
                {
                    "attributes" : {
                        "POSITION" : 8,
                        "NORMAL" : 9,
                        "TEXCOORD_0" : 10
                    },
                    "indices" : 11
                }
            ]
        },
        {
            "name" : "Cube.007",
            "primitives" : [
                {
                    "attributes" : {
                        "POSITION" : 12,
                        "NORMAL" : 13,
                        "TEXCOORD_0" : 14
                    },
                    "indices" : 11
                }
            ]
        },
        {
            "name" : "Cube.008",
            "primitives" : [
                {
                    "attributes" : {
                        "POSITION" : 15,
                        "NORMAL" : 16,
                        "TEXCOORD_0" : 17
                    },
                    "indices" : 11
                }
            ]
        }
    ],
    "accessors" : [
        {
            "bufferView" : 0,
            "componentType" : 5126,
            "count" : 24,
            "max" : [
                50,
                0,
                50
            ],
            "min" : [
                -50,
                -1.9999998807907104,
                -50
            ],
            "type" : "VEC3"
        },
        {
            "bufferView" : 1,
            "componentType" : 5126,
            "count" : 24,
            "type" : "VEC3"
        },
        {
            "bufferView" : 2,
            "componentType" : 5126,
            "count" : 24,
            "type" : "VEC2"
        },
        {
            "bufferView" : 3,
            "componentType" : 5123,
            "count" : 36,
            "type" : "SCALAR"
        },
        {
            "bufferView" : 4,
            "componentType" : 5126,
            "count" : 144,
            "max" : [
                8.4640474319458,
                0.8901382684707642,
                6.128785133361816
            ],
            "min" : [
                -8.4640474319458,
                -8.787504196166992,
                -6.128785133361816
            ],
            "type" : "VEC3"
        },
        {
            "bufferView" : 5,
            "componentType" : 5126,
            "count" : 144,
            "type" : "VEC3"
        },
        {
            "bufferView" : 6,
            "componentType" : 5126,
            "count" : 144,
            "type" : "VEC2"
        },
        {
            "bufferView" : 7,
            "componentType" : 5123,
            "count" : 216,
            "type" : "SCALAR"
        },
        {
            "bufferView" : 8,
            "componentType" : 5126,
            "count" : 441,
            "max" : [
                1.2373801469802856,
                1.2373801469802856,
                1.2373801469802856
            ],
            "min" : [
                -1.2373801469802856,
                -1.2373801469802856,
                -1.2373801469802856
            ],
            "type" : "VEC3"
        },
        {
            "bufferView" : 9,
            "componentType" : 5126,
            "count" : 441,
            "type" : "VEC3"
        },
        {
            "bufferView" : 10,
            "componentType" : 5126,
            "count" : 441,
            "type" : "VEC2"
        },
        {
            "bufferView" : 11,
            "componentType" : 5123,
            "count" : 2304,
            "type" : "SCALAR"
        },
        {
            "bufferView" : 12,
            "componentType" : 5126,
            "count" : 441,
            "max" : [
                1.2373801469802856,
                1.2373801469802856,
                1.2373801469802856
            ],
            "min" : [
                -1.2373801469802856,
                -1.2373801469802856,
                -1.2373801469802856
            ],
            "type" : "VEC3"
        },
        {
            "bufferView" : 13,
            "componentType" : 5126,
            "count" : 441,
            "type" : "VEC3"
        },
        {
            "bufferView" : 14,
            "componentType" : 5126,
            "count" : 441,
            "type" : "VEC2"
        },
        {
            "bufferView" : 15,
            "componentType" : 5126,
            "count" : 441,
            "max" : [
                1.2373801469802856,
                1.2373801469802856,
                1.2373801469802856
            ],
            "min" : [
                -1.2373801469802856,
                -1.2373801469802856,
                -1.2373801469802856
            ],
            "type" : "VEC3"
        },
        {
            "bufferView" : 16,
            "componentType" : 5126,
            "count" : 441,
            "type" : "VEC3"
        },
        {
            "bufferView" : 17,
            "componentType" : 5126,
            "count" : 441,
            "type" : "VEC2"
        }
    ],
    "bufferViews" : [
        {
            "buffer" : 0,
            "byteLength" : 288,
            "byteOffset" : 0
        },
        {
            "buffer" : 0,
            "byteLength" : 288,
            "byteOffset" : 288
        },
        {
            "buffer" : 0,
            "byteLength" : 192,
            "byteOffset" : 576
        },
        {
            "buffer" : 0,
            "byteLength" : 72,
            "byteOffset" : 768
        },
        {
            "buffer" : 0,
            "byteLength" : 1728,
            "byteOffset" : 840
        },
        {
            "buffer" : 0,
            "byteLength" : 1728,
            "byteOffset" : 2568
        },
        {
            "buffer" : 0,
            "byteLength" : 1152,
            "byteOffset" : 4296
        },
        {
            "buffer" : 0,
            "byteLength" : 432,
            "byteOffset" : 5448
        },
        {
            "buffer" : 0,
            "byteLength" : 5292,
            "byteOffset" : 5880
        },
        {
            "buffer" : 0,
            "byteLength" : 5292,
            "byteOffset" : 11172
        },
        {
            "buffer" : 0,
            "byteLength" : 3528,
            "byteOffset" : 16464
        },
        {
            "buffer" : 0,
            "byteLength" : 4608,
            "byteOffset" : 19992
        },
        {
            "buffer" : 0,
            "byteLength" : 5292,
            "byteOffset" : 24600
        },
        {
            "buffer" : 0,
            "byteLength" : 5292,
            "byteOffset" : 29892
        },
        {
            "buffer" : 0,
            "byteLength" : 3528,
            "byteOffset" : 35184
        },
        {
            "buffer" : 0,
            "byteLength" : 5292,
            "byteOffset" : 38712
        },
        {
            "buffer" : 0,
            "byteLength" : 5292,
            "byteOffset" : 44004
        },
        {
            "buffer" : 0,
            "byteLength" : 3528,
            "byteOffset" : 49296
        }
    ],
    "buffers" : [
        {
            "byteLength" : 52824,
            "uri" : "data:application/octet-stream;base64,"
        }
    ]
}
